<?xml version="1.0" standalone="no"?>
<!DOCTYPE svg PUBLIC "-//W3C//DTD SVG 20010904//EN"
 "http://www.w3.org/TR/2001/REC-SVG-20010904/DTD/svg10.dtd">
<svg version="1.0" xmlns="http://www.w3.org/2000/svg"
 width="567.000000pt" height="1206.000000pt" viewBox="0 0 567.000000 1206.000000"
 preserveAspectRatio="xMidYMid meet">

<g transform="translate(0.000000,1206.000000) scale(0.100000,-0.100000)"
fill="#000000" stroke="none">
<path d="M2235 12045 c-118 -17 -219 -41 -267 -66 -10 -5 -24 -9 -32 -9 -8 0
-16 -5 -18 -11 -2 -5 -17 -12 -33 -13 -16 -2 -31 -9 -33 -15 -2 -6 -12 -11
-22 -11 -10 0 -20 -7 -24 -15 -3 -8 -12 -15 -21 -15 -8 0 -15 -4 -15 -10 0 -5
-5 -10 -10 -10 -27 0 -75 -70 -85 -123 -9 -48 9 -97 52 -143 l36 -38 -7 -136
c-3 -74 -10 -171 -14 -215 -10 -109 -9 -1025 1 -1205 5 -80 13 -323 18 -540 5
-217 14 -557 18 -755 12 -445 12 -1337 1 -1505 -19 -296 -30 -388 -60 -505
-33 -130 -47 -179 -60 -210 -4 -11 -25 -60 -45 -109 -20 -49 -77 -169 -126
-267 -49 -98 -89 -180 -89 -183 0 -3 -19 -36 -41 -73 -43 -69 -67 -114 -147
-263 -25 -47 -64 -114 -87 -150 -23 -36 -90 -146 -149 -245 -60 -99 -114 -187
-121 -195 -7 -8 -49 -85 -93 -170 -44 -85 -99 -191 -123 -235 -170 -321 -210
-400 -229 -450 -8 -22 -34 -79 -57 -127 -24 -48 -43 -94 -43 -101 0 -7 -4 -17
-8 -23 -10 -11 -63 -154 -87 -234 -9 -30 -21 -64 -25 -75 -16 -39 -84 -287
-100 -365 -6 -30 -15 -93 -20 -140 -6 -47 -15 -95 -20 -108 -15 -35 -23 -423
-11 -552 14 -155 29 -268 41 -310 30 -113 40 -152 55 -210 9 -36 20 -74 25
-85 4 -11 27 -72 50 -135 181 -495 560 -961 1041 -1278 256 -169 585 -313 889
-388 94 -24 98 -24 692 -24 655 0 633 -2 852 65 458 139 843 370 1181 709 230
231 357 404 502 686 168 325 257 653 284 1041 29 419 -68 928 -275 1452 -26
65 -61 148 -77 185 -17 37 -38 83 -46 102 -52 116 -328 652 -353 685 -4 6 -29
51 -55 100 -27 50 -110 198 -185 330 -75 132 -146 256 -156 275 -10 19 -25 40
-31 48 -7 7 -13 17 -13 22 0 7 -26 55 -155 285 -207 371 -372 722 -430 916
-81 271 -125 1046 -140 2459 -3 239 -7 651 -10 915 -6 558 -17 841 -45 1102
l-20 187 36 37 c61 63 74 156 30 223 -19 29 -99 96 -115 96 -11 0 -20 4 -79
33 -19 9 -42 17 -51 17 -10 0 -21 3 -25 7 -4 5 -29 13 -54 20 -26 6 -65 16
-87 22 -22 6 -92 18 -155 26 -147 19 -789 19 -925 0z m715 -65 c292 -20 474
-56 602 -121 108 -54 134 -110 86 -187 -78 -127 -619 -215 -1121 -184 -202 13
-405 40 -497 68 -100 29 -219 93 -241 127 -24 39 -18 90 14 126 27 28 120 73
207 100 212 64 616 95 950 71z m-1015 -500 c347 -121 1143 -126 1535 -9 55 16
101 29 103 29 4 0 8 -31 26 -220 25 -267 37 -734 40 -1529 1 -354 3 -647 6
-651 2 -4 5 -139 6 -301 4 -507 18 -855 55 -1349 36 -485 69 -617 244 -975 99
-204 324 -626 410 -770 26 -44 80 -141 120 -215 40 -74 78 -142 85 -150 7 -8
50 -82 95 -165 45 -82 108 -195 140 -250 85 -148 347 -669 417 -830 234 -534
343 -993 343 -1448 0 -188 -11 -301 -51 -503 -54 -278 -133 -490 -276 -743
-121 -215 -246 -375 -442 -572 -190 -189 -335 -300 -571 -435 -752 -430 -1687
-482 -2488 -137 -96 41 -289 139 -312 158 -8 7 -35 22 -58 34 -115 58 -330
228 -488 386 -435 434 -691 976 -755 1600 -20 200 -2 521 42 745 48 246 170
624 268 835 20 44 48 105 61 135 23 53 71 148 207 410 72 138 301 543 343 605
15 22 36 56 47 75 11 19 72 125 135 235 404 703 525 963 586 1260 50 242 57
399 56 1275 0 448 -6 961 -12 1140 -13 354 -29 928 -36 1275 -4 234 9 891 20
1013 6 61 10 73 23 68 9 -3 43 -14 76 -26z"/>
<path d="M2385 11940 c-345 -43 -489 -99 -417 -163 79 -71 581 -122 970 -99
311 19 466 48 511 96 47 50 10 84 -129 120 -52 14 -131 30 -175 36 -102 14
-667 21 -760 10z"/>
<path d="M1570 5106 c0 -2 8 -10 17 -17 9 -8 14 -9 10 -2 -4 6 -1 14 5 16 7 3
3 6 -9 6 -13 1 -23 -1 -23 -3z"/>
<path d="M2062 3888 c-22 -35 -106 -206 -134 -273 -107 -252 -160 -407 -213
-621 -56 -229 -76 -368 -82 -584 -8 -294 22 -494 109 -718 47 -120 71 -145
113 -118 14 9 25 25 25 34 0 10 -18 63 -40 118 -79 197 -116 429 -107 674 15
418 148 905 366 1336 33 67 61 129 61 137 0 23 -28 47 -55 47 -16 0 -30 -11
-43 -32z"/>
<path d="M4682 2813 c-12 -10 -36 -64 -55 -123 -116 -352 -335 -638 -647 -847
-136 -91 -310 -167 -478 -208 -76 -18 -99 -38 -87 -75 15 -48 55 -47 228 7
400 125 780 453 983 849 47 93 134 330 134 366 0 11 -38 48 -49 48 -5 0 -18
-8 -29 -17z"/>
</g>
</svg>
