<?xml version="1.0" standalone="no"?>
<!DOCTYPE svg PUBLIC "-//W3C//DTD SVG 20010904//EN"
 "http://www.w3.org/TR/2001/REC-SVG-20010904/DTD/svg10.dtd">
<svg version="1.0" xmlns="http://www.w3.org/2000/svg"
 width="302.000000pt" height="824.000000pt" viewBox="0 0 302.000000 824.000000"
 preserveAspectRatio="xMidYMid meet">

<g transform="translate(0.000000,824.000000) scale(0.100000,-0.100000)"
fill="#000000" stroke="none">
<path d="M1275 8065 c-104 -13 -200 -34 -192 -41 2 -2 57 4 123 12 149 20 537
14 653 -10 129 -27 183 -68 167 -129 -5 -23 -28 -38 -149 -97 -197 -96 -352
-125 -657 -123 -199 2 -283 16 -288 48 -5 41 9 46 84 30 77 -16 335 -20 397
-6 88 21 61 35 -113 61 -236 34 -323 61 -338 101 -7 17 -9 16 -19 -11 -6 -17
-8 -28 -3 -25 4 3 29 -4 54 -16 53 -23 142 -44 301 -69 l110 -17 -58 -8 c-120
-16 -407 23 -429 59 -4 6 -7 -9 -7 -34 1 -25 0 -49 -2 -55 -2 -5 0 -26 4 -45
5 -27 1 -52 -18 -100 -14 -36 -28 -87 -31 -115 -5 -46 -2 -53 27 -85 45 -50
49 -67 49 -208 -1 -168 -12 -288 -51 -542 -6 -36 -14 -90 -19 -120 -4 -30 -13
-73 -20 -95 -6 -22 -14 -52 -17 -68 -3 -15 -9 -30 -14 -33 -5 -3 -9 -15 -9
-26 0 -24 -32 -121 -60 -183 -10 -22 -25 -62 -34 -90 -18 -52 -36 -86 -103
-195 -22 -36 -60 -103 -84 -150 -25 -47 -63 -113 -84 -148 -22 -35 -57 -90
-77 -123 -21 -33 -59 -105 -84 -162 -25 -56 -60 -131 -76 -166 -17 -35 -40
-101 -53 -145 -21 -76 -27 -103 -54 -246 -8 -37 -11 -661 -11 -1955 l-1 -1901
27 -79 c29 -87 97 -199 146 -240 49 -41 135 -80 233 -104 50 -13 128 -36 175
-51 102 -33 158 -46 270 -59 47 -6 120 -15 163 -21 43 -5 99 -9 125 -9 39 1
30 4 -53 19 -55 10 -134 25 -175 33 -41 8 -108 21 -147 28 -58 10 -69 14 -57
23 12 9 -10 17 -108 35 -250 47 -380 98 -441 173 -43 53 -90 145 -113 224 -18
56 -19 160 -21 1947 l-3 1888 25 123 c55 272 128 441 355 815 144 239 244 426
286 538 106 282 176 691 178 1050 1 115 5 183 11 183 6 0 45 -7 88 -15 89 -17
380 -30 332 -15 -16 5 -118 23 -225 40 -208 33 -249 48 -269 98 -12 30 -8 48
40 149 17 39 30 53 45 53 11 0 23 -3 26 -6 7 -7 -72 -144 -83 -144 -18 0 -8
-30 14 -44 66 -44 446 -83 697 -71 221 9 402 37 444 68 18 13 16 17 -24 90
-36 66 -39 78 -25 83 20 8 16 12 54 -63 36 -73 39 -110 11 -146 -27 -34 -53
-41 -275 -77 -104 -17 -194 -33 -200 -35 -20 -10 291 5 335 15 25 5 54 12 65
15 19 4 20 -1 21 -193 1 -228 13 -346 60 -599 72 -386 145 -558 424 -1008 187
-301 280 -515 332 -760 l23 -110 0 -1900 0 -1900 -23 -75 c-50 -158 -113 -245
-213 -296 -29 -14 -129 -46 -223 -70 -94 -23 -163 -43 -153 -43 21 -1 22 -9 0
-33 -23 -25 -7 -24 102 11 49 16 136 44 192 61 63 20 123 46 155 69 61 42 125
131 158 218 52 137 51 77 48 2099 l-3 1879 -23 103 c-26 115 -73 261 -122 372
-39 90 -162 311 -235 425 -206 319 -311 558 -380 865 -54 238 -90 580 -83 788
3 103 5 113 26 127 29 21 52 66 52 103 0 16 -18 64 -39 108 -30 60 -37 83 -30
97 7 12 6 30 -1 53 -10 30 -9 38 5 54 18 20 14 51 -10 80 -7 8 -15 33 -18 54
-11 72 -67 104 -229 132 -122 21 -420 26 -553 9z m789 -227 c22 -35 -44 -73
-177 -103 -42 -9 -82 -15 -89 -13 -7 3 26 23 73 45 48 22 104 52 125 67 42 28
52 29 68 4z m-11 -110 c4 -13 0 -29 -10 -40 -42 -46 -244 -91 -395 -86 l-93 3
113 23 c63 12 126 29 140 37 36 19 27 18 -92 -5 -56 -11 -127 -25 -158 -31
-59 -11 -76 -30 -40 -44 41 -17 211 -17 312 -1 56 10 103 16 105 14 1 -2 6
-29 9 -60 7 -56 7 -58 -19 -68 -74 -28 -649 -42 -781 -19 -94 16 -96 19 -88
116 l7 83 86 -7 c142 -10 440 22 566 61 32 10 53 12 59 6 18 -18 120 -11 192
14 86 30 81 30 87 4z"/>
<path d="M1325 8019 c-141 -11 -259 -39 -263 -61 -7 -36 131 -58 403 -65 210
-6 344 4 423 30 41 14 53 40 24 56 -65 35 -387 57 -587 40z m450 -29 c141 -22
151 -43 27 -59 -168 -21 -590 -10 -690 19 l-27 7 25 11 c21 8 102 20 240 36
59 7 351 -3 425 -14z"/>
<path d="M908 6150 c-73 -168 -119 -282 -116 -286 9 -9 88 145 113 219 27 82
29 128 3 67z"/>
<path d="M257 4833 c-33 -102 -39 -155 -42 -373 -1 -124 -1 -200 1 -170 17
254 27 364 44 465 11 65 18 120 16 122 -2 2 -11 -17 -19 -44z"/>
<path d="M2714 4827 c12 -38 45 -328 52 -455 3 -73 9 -131 11 -128 10 9 4 340
-6 406 -12 75 -36 158 -52 180 -9 13 -10 12 -5 -3z"/>
<path d="M227 1915 c-5 -148 -12 -353 -17 -455 -13 -242 -12 -429 1 -510 22
-139 108 -259 224 -315 122 -57 403 -109 655 -120 l105 -4 -105 14 c-347 48
-518 85 -628 136 -56 27 -62 33 -62 60 0 22 9 40 31 60 17 16 35 29 40 29 5 0
9 11 9 25 0 14 -2 25 -5 25 -3 0 -37 -16 -76 -36 l-71 -35 -24 22 c-75 71 -87
169 -73 604 5 182 9 429 7 550 l-3 220 -8 -270z"/>
<path d="M2752 1915 c0 -126 3 -374 7 -550 9 -355 4 -425 -37 -504 -39 -78
-50 -82 -121 -43 -122 67 -294 117 -509 146 -113 16 -427 25 -439 13 -3 -4 23
-7 58 -7 108 0 397 -39 527 -70 258 -63 401 -146 352 -205 -7 -8 -40 -27 -74
-43 -93 -44 -174 -63 -546 -130 l-55 -10 60 4 c225 18 476 75 596 135 111 55
184 155 208 283 14 76 14 328 1 621 -6 127 -15 311 -19 410 l-8 180 -1 -230z"/>
<path d="M969 970 c-175 -17 -189 -20 -189 -42 0 -14 5 -18 16 -14 9 3 84 15
167 26 84 12 170 25 192 29 35 7 30 9 -35 8 -41 0 -109 -3 -151 -7z"/>
<path d="M370 564 c0 -19 230 -94 284 -94 34 1 1 15 -99 44 -50 14 -111 32
-137 40 -27 8 -48 13 -48 10z"/>
<path d="M2468 520 c-99 -29 -144 -48 -135 -57 10 -9 164 35 213 61 62 32 44
31 -78 -4z"/>
<path d="M2095 475 c-109 -21 -176 -38 -180 -45 -9 -15 273 32 305 50 22 14
-41 11 -125 -5z"/>
<path d="M833 373 c9 -2 23 -2 30 0 6 3 -1 5 -18 5 -16 0 -22 -2 -12 -5z"/>
<path d="M2190 330 c0 -5 5 -10 10 -10 6 0 10 5 10 10 0 6 -4 10 -10 10 -5 0
-10 -4 -10 -10z"/>
</g>
</svg>
